<svg width="144" height="17" fill="none" xmlns="http://www.w3.org/2000/svg"><path fill-rule="evenodd" clip-rule="evenodd" d="M81.764 8.488c0 4.687-3.727 8.512-8.49 8.512a8.487 8.487 0 0 1-8.538-8.512C64.736 3.791 68.52 0 73.274 0a8.45 8.45 0 0 1 8.49 8.488Zm-12.89 0c0 2.648 1.62 4.824 4.4 4.824 2.733 0 4.375-2.226 4.375-4.824 0-2.6-1.638-4.823-4.375-4.823-2.783 0-4.4 2.174-4.4 4.823ZM13.244 12.318c0-1.88-1.259-3.456-3.07-3.932v-.158c1.675-.522 2.536-1.943 2.536-3.688 0-2.997-2.729-4.304-5.392-4.304H0v3.238l6.538.002c1.342 0 2.058.63 2.058 1.75 0 1.107-.7 1.725-2.058 1.725H0v9.883h7.733c2.796 0 5.51-1.411 5.51-4.516ZM6.976 9.907c1.133 0 2.176.609 2.176 1.868 0 1.239-.993 1.797-2.128 1.797h-2.98V9.907h2.932ZM18.628 16.834l.994-2.931h6.196l.993 2.931h4.28L25.086.236h-4.683l-6.007 16.598h4.233Zm4.17-11.899 1.98 5.847h-4.092l1.957-5.847h.155Z" fill="#000880"/><path d="M47.771 16.834h-4.044l-6.59-9.976-.173.038v9.938H32.92V.236h4.044l6.634 10.089.13-.03V.237h4.043v16.598ZM54.858 9.65l5.47 7.184h4.943L58.6 8.37 65.035.236h-4.753l-5.434 7.15h-.1V.236h-4.044v16.598h4.044V9.651h.11ZM94.821 16.834h4.044V.236h-4.044v10.285L88.057.236h-4.044v16.598h4.044V6.597l6.764 10.237Z" fill="#000880"/><path d="M117.386 16.834v-10h10.92v3.12h-6.876v3.641h6.876v3.24h-10.92ZM117.386 3.476V.236h10.92v3.24h-10.92ZM144 .236v3.24h-4.965v13.358h-4.044V3.476h-4.959V.236H144Z" fill="#F61221"/><path fill-rule="evenodd" clip-rule="evenodd" d="M115.05 12.34c0-1.881-1.258-3.457-3.071-3.933v-.158c1.677-.523 2.692-1.943 2.692-3.689 0-2.996-2.729-4.303-5.392-4.303h-7.473v16.598h7.733c2.796 0 5.511-1.412 5.511-4.516Zm-9.2-5.368h2.649c1.358 0 2.058-.618 2.058-1.726 0-1.12-.716-1.75-2.058-1.75h-2.649v3.476Zm2.933 2.956c1.132 0 2.176.609 2.176 1.867 0 1.24-.994 1.797-2.129 1.797h-2.98V9.928h2.933Z" fill="#F61221"/></svg>