<svg viewBox="0 0 157 48" xml:space="preserve" xmlns="http://www.w3.org/2000/svg"><style>.st2{fill:#fff}</style><path style="fill:#fea62f" d="M76.6.2 57.7 40.1H.2L19.1.2z"/><path style="fill:#3b3b3b" d="M137.3 40.1H57.7L76.6.2h79.6z"/><path class="st2" d="M83.9 9.4H97c2.2 0 3.6.5 4.3 1.6s.6 2.4-.1 3.9c-.6 1.3-1.6 2.4-2.9 3.4-.9.6-1.9 1.1-3.1 1.5 1.4.4 2.3 1 2.6 2 .3.9.1 2.1-.5 3.5-.5 1.1-1.3 2.2-2.3 3.1s-2.1 1.6-3.3 2.2c-.7.3-1.7.6-3 .7-1.7.2-2.8.3-3.3.3H73.3L83.9 9.4zm-1.3 17.4h3.6c1.2 0 2.2-.2 2.8-.6.7-.4 1.2-1 1.5-1.7s.3-1.2 0-1.6-1.1-.6-2.3-.6h-3.6l-2 4.5zm4.2-8.7h3c1.1 0 1.9-.2 2.5-.5.6-.4 1.1-.9 1.4-1.6.3-.6.3-1.1.1-1.5-.3-.4-.9-.5-2-.5h-3.1l-1.9 4.1zM118.8 25h-12.6c-.4 1-.4 1.7-.2 2.2.3.7.9 1 1.9 1 .6 0 1.3-.2 2-.5.4-.2 1-.5 1.6-1l5.9.6c-1.7 1.6-3.4 2.8-5.1 3.5s-3.8 1-6.3 1c-2.2 0-3.7-.3-4.7-.9s-1.5-1.5-1.7-2.8.1-2.8 1-4.6c1.2-2.5 3-4.5 5.4-6.1 2.4-1.5 5-2.3 7.9-2.3 2.3 0 4 .3 5.1 1 1 .7 1.6 1.7 1.7 3s-.4 3-1.4 5.1l-.5.8zm-5-2.9c.4-1.2.5-2 .2-2.5s-.9-.8-1.7-.8c-1 0-2 .4-2.9 1.2-.6.5-1.2 1.2-1.8 2.2h6.2zM136.7 9.4l-2.9 6.1h3.5l-2.1 4.5h-3.5l-2.7 5.7c-.3.7-.5 1.1-.4 1.4 0 .3.3.5.8.5s1.2-.1 2.1-.4l-1.6 4.2c-1.7.3-3.2.5-4.6.5-1.6 0-2.6-.2-3.2-.6s-.8-1-.8-1.8.5-2.1 1.3-3.9l2.7-5.6H123l2.2-4.5h2.3l1.4-2.9 7.8-3.2zM55.3 4.1H44.1c-2.1 2.4-4.2 4.1-6.4 5s-5.1 1.4-8.5 1.5H27l-4.4 9h11.3l-10 20.5h-11l-3.6 7.6h35.4l3.6-7.6H37.7l17.6-36z"/></svg>