<?xml version="1.0" encoding="UTF-8"?>
<svg enable-background="new 0 0 157 48" version="1.1" viewBox="0 0 157 48" xml:space="preserve" xmlns="http://www.w3.org/2000/svg">
<style type="text/css">
	.st0{fill:#fea62f;}
	.st1{fill:#3b3b3b;}
	.st2{fill:#FFFFFF;}
</style>
	<polygon class="st0" points="76.6 0.2 57.7 40.1 0.2 40.1 19.1 0.2"/>
	<polygon class="st1" points="137.3 40.1 57.7 40.1 76.6 0.2 156.2 0.2"/>
		<path class="st2" d="m83.9 9.4h13.1c2.2 0 3.6 0.5 4.3 1.6s0.6 2.4-0.1 3.9c-0.6 1.3-1.6 2.4-2.9 3.4-0.9 0.6-1.9 1.1-3.1 1.5 1.4 0.4 2.3 1 2.6 2 0.3 0.9 0.1 2.1-0.5 3.5-0.5 1.1-1.3 2.2-2.3 3.1s-2.1 1.6-3.3 2.2c-0.7 0.3-1.7 0.6-3 0.7-1.7 0.2-2.8 0.3-3.3 0.3h-12.1l10.6-22.2zm-1.3 17.4h3.6c1.2 0 2.2-0.2 2.8-0.6 0.7-0.4 1.2-1 1.5-1.7s0.3-1.2 0-1.6-1.1-0.6-2.3-0.6h-3.6l-2 4.5zm4.2-8.7h3c1.1 0 1.9-0.2 2.5-0.5 0.6-0.4 1.1-0.9 1.4-1.6 0.3-0.6 0.3-1.1 0.1-1.5-0.3-0.4-0.9-0.5-2-0.5h-3.1l-1.9 4.1z"/>
		<path class="st2" d="m118.8 25h-12.6c-0.4 1-0.4 1.7-0.2 2.2 0.3 0.7 0.9 1 1.9 1 0.6 0 1.3-0.2 2-0.5 0.4-0.2 1-0.5 1.6-1l5.9 0.6c-1.7 1.6-3.4 2.8-5.1 3.5s-3.8 1-6.3 1c-2.2 0-3.7-0.3-4.7-0.9s-1.5-1.5-1.7-2.8 0.1-2.8 1-4.6c1.2-2.5 3-4.5 5.4-6.1 2.4-1.5 5-2.3 7.9-2.3 2.3 0 4 0.3 5.1 1 1 0.7 1.6 1.7 1.7 3s-0.4 3-1.4 5.1l-0.5 0.8zm-5-2.9c0.4-1.2 0.5-2 0.2-2.5s-0.9-0.8-1.7-0.8c-1 0-2 0.4-2.9 1.2-0.6 0.5-1.2 1.2-1.8 2.2h6.2z"/>
		<path class="st2" d="m136.7 9.4l-2.9 6.1h3.5l-2.1 4.5h-3.5l-2.7 5.7c-0.3 0.7-0.5 1.1-0.4 1.4 0 0.3 0.3 0.5 0.8 0.5s1.2-0.1 2.1-0.4l-1.6 4.2c-1.7 0.3-3.2 0.5-4.6 0.5-1.6 0-2.6-0.2-3.2-0.6s-0.8-1-0.8-1.8 0.5-2.1 1.3-3.9l2.7-5.6h-2.3l2.2-4.5h2.3l1.4-2.9 7.8-3.2z"/>
	<path class="st2" d="m55.3 4.1h-11.2c-2.1 2.4-4.2 4.1-6.4 5s-5.1 1.4-8.5 1.5h-2.2l-4.4 9h11.3l-10 20.5h-11l-3.6 7.6h35.4l3.6-7.6h-10.6l17.6-36z"/>
</svg>
