<svg width="135" height="29" fill="none" xmlns="http://www.w3.org/2000/svg"><path fill-rule="evenodd" clip-rule="evenodd" d="M26.631 8.402h-.001V6.384h-2.918V0H0l26.63 27.758-.002-5.43h.003V8.402Zm-7.251-4.72v2.702h-4.522l4.183 4.373H22.3v6.461L9.43 3.683h9.95Z" fill="#fff"/><path d="M44.471 11.552 55.797 0H28.735v27.758l12.37-12.778h-5.928l-2.11 2.225V3.683h13.231l-1.824 1.882-.002 5.987ZM79.863 10.207h6.335L86.19.008h2.612l.008 12.519H77.256L77.236.008h4.356l.003 2.324h-1.743l.01 7.875Z" fill="#fff"/><path fill-rule="evenodd" clip-rule="evenodd" d="M104.405 10.207h-2.872l-1.504-2.776h1.991l.002-7.423h-11l.007 12.52h2.61l-.002-5.097h3.494l2.762 5.096h7.121l.007-10.195h7.064l-.004 2.778h-5.788l.989 2.321h4.797l-.006 5.096h2.61L116.7.008h-12.29l-.005 10.199Zm-10.77-7.875h5.774V5.11h-5.773V2.332Z" fill="#fff"/><path d="m129.039 10.207.024-10.199h2.612l-.031 12.519h-7.09l-3.022-9.897-.017 9.896h-2.61l.02-12.518h4.515l3.112 10.199h2.487Z" fill="#fff"/><path fill-rule="evenodd" clip-rule="evenodd" d="M75.046 3.942h-1.775L73.264.008h-9.752l-.006 12.519H75.06l-.014-8.585Zm-8.935 6.265v-.02h-.018V2.333h4.563l.003 1.61h-3.387l1.239 2.322h3.928l.007 3.943h-6.335ZM134.997 16.61l.003 2.324h-.008L134.999 29h-11.253l-.018-12.39h11.269Zm-8.644 10.246h6.034l-.007-7.652h-6.037l.01 7.652Z" fill="#fff"/><path d="m118.906 16.564-.002 10.292h-2.224l-3.111-10.199h-4.323L109.227 29h2.417l.017-9.796L115.008 29h6.508V16.564h-2.61ZM99.91 26.856l-8.99.023V29h11.102v-6.92l-8.97-2.876h8.97v-2.603l-11.01.019V21l8.897 3.019v2.837ZM65.751 26.828v-7.621l7.005-.01v1.736l2.276-.003V16.59l-11.52.019V29l10.513-.007V29h5.453l.007-9.796 6.965-.003-.003 2.477-5.705.004.979 2.29 4.723-.003-.005 5.027H88.8l.017-12.351-11.59.003-.005 10.208-11.472-.028ZM104.406 16.657h2.608V29h-2.608V16.657Z" fill="#fff"/></svg>