<svg xmlns="http://www.w3.org/2000/svg" width="144" height="56" fill="none"><path fill-rule="evenodd" clip-rule="evenodd" d="M53.995 53.904v-.009c.021-1.895.078-3.798.17-5.704-4.663 2.657-9.338 3.629-12.356 1.296-3.21-2.48-1.7-5.937 2.22-9.49l-1.74-3.758h-9.48l-2.89 6.294h-6.357L37.58 13.2l11.104 23.233a70.953 70.953 0 0 1 5.57-3.332 165.956 165.956 0 0 0-.41 3.148c-6.673 3.824-11.017 8.326-8.242 9.717 1.765.885 5.25-.462 8.877-2.759.4-5.068 1.035-10.12 1.888-15.054-8.13 2.96-10.654-.525-7.818-5.436 1.786-3.093 6.73-8.038 11.813-11.69.633-2.112 1.31-4.172 2.028-6.168v-.001c.365-.99.74-1.956 1.127-2.896l.03-.074.072-.033c.958-.446 1.848-.512 2.58-.263.736.248 1.29.805 1.584 1.554l.034.089-.045.083a71.86 71.86 0 0 0-2.238 4.529c3.293-1.632 6.167-2.156 7.66-.57 4.43 4.706-5.706 11.71-7.5 12.002 0 0-.573-.171-.962-.562-.39-.39-.233-.963-.233-.963 2.059-1.032 5.558-3.57 5.558-5.713 0-2.404-3.068-1.304-6.663 1.034a88.071 88.071 0 0 0-2.715 8.749c11.037-3.991 9.685 2.984 9.408 4.413-.023.12-.04.202-.04.233 0 0 1.212-.55 4.128-1.09V14.823h5.647v10.411h12.914v-10.41h5.647v27.71h-5.647V30.34H79.824v12.192h-5.648V30.12c-1.3.06-2.959.207-4.814.54-1.202 4.899-5.924 10.8-11.328 14.945.159 3.246.572 6.23 1.239 8.83l.022.086-.047.075c-.44.695-1.437.987-2.433.909-1.01-.08-2.099-.543-2.779-1.466l-.035-.047-.006-.088Zm3.988-13.175c3.995-3.122 7.523-6.923 8.337-9.579-2.16.526-4.344 1.267-6.453 2.14.129-1.052.278-2.115.45-3.185 2.219-1 4.455-1.91 6.613-2.69.513-1.81 1.098-5.134-5.53-1.566-.635.341-1.248.654-1.838.94a90.102 90.102 0 0 0-.628 3.578 81.849 81.849 0 0 0-.951 10.362Zm-.68-17.51c.473-2.3.994-4.564 1.56-6.784-5.964 4.93-10.504 10.704-2.049 7.01l.488-.226Zm-23.18 8.547h6.888l-3.43-7.957-3.458 7.957Z" fill="#514630"/><path d="M7.345 33.468c-.816-1.372-1.224-2.969-1.224-4.79 0-1.847.408-3.444 1.224-4.79.843-1.346 1.935-2.375 3.278-3.087 1.343-.74 2.804-1.109 4.384-1.109 1.316 0 2.487.172 3.514.515 1.027.343 1.948.805 2.764 1.385.843.58 1.567 1.214 2.172 1.9V17.12a13.606 13.606 0 0 0-3.712-2.098c-1.316-.501-2.988-.752-5.015-.752-2.106 0-4.068.343-5.884 1.03a13.833 13.833 0 0 0-4.7 2.968c-1.316 1.293-2.343 2.824-3.08 4.592C.356 24.601 0 26.541 0 28.68c0 2.137.355 4.09 1.066 5.858a13.911 13.911 0 0 0 3.08 4.552 13.833 13.833 0 0 0 4.7 2.97c1.816.685 3.778 1.028 5.884 1.028 2.027 0 3.699-.25 5.015-.752 1.343-.501 2.58-1.2 3.712-2.098v-6.373c-.605.686-1.329 1.32-2.172 1.9a10.445 10.445 0 0 1-2.764 1.386c-1.027.343-2.198.514-3.514.514-1.58 0-3.041-.356-4.384-1.069-1.343-.739-2.435-1.781-3.278-3.127ZM105.835 37.743h12.124v4.79h-17.574v-27.71h17.574v4.79h-12.124v5.859h11.334v4.71h-11.334v7.561Z" fill="#514630"/><path fill-rule="evenodd" clip-rule="evenodd" d="M119.97 14.823v27.71h9.399c2.896 0 5.423-.567 7.582-1.702 2.185-1.135 3.883-2.731 5.095-4.79 1.211-2.085 1.816-4.539 1.816-7.363 0-2.823-.605-5.265-1.816-7.323-1.212-2.085-2.91-3.695-5.095-4.83-2.159-1.134-4.686-1.702-7.582-1.702h-9.399Zm5.766 5.146v17.418h3.436c1.211 0 2.356-.158 3.435-.475a7.92 7.92 0 0 0 2.844-1.583c.816-.713 1.448-1.61 1.895-2.692.474-1.109.711-2.428.711-3.959 0-1.53-.237-2.837-.711-3.919-.447-1.108-1.079-2.019-1.895-2.731a7.463 7.463 0 0 0-2.844-1.544 11.27 11.27 0 0 0-3.435-.515h-3.436Z" fill="#514630"/><path fill-rule="evenodd" clip-rule="evenodd" d="M53.995 52.456v-.009c.021-1.895.078-3.798.17-5.704-4.663 2.657-9.338 3.628-12.356 1.296-3.21-2.481-1.7-5.938 2.22-9.49l-1.74-3.758h-9.48l-2.89 6.294h-6.357L37.58 11.752l11.104 23.233a70.953 70.953 0 0 1 5.57-3.333 165.956 165.956 0 0 0-.41 3.149c-6.673 3.824-11.017 8.326-8.242 9.717 1.765.885 5.25-.462 8.877-2.76.4-5.068 1.035-10.12 1.888-15.053-8.13 2.959-10.654-.525-7.818-5.436 1.786-3.093 6.73-8.038 11.813-11.69.633-2.113 1.31-4.172 2.028-6.168v-.002c.365-.99.74-1.955 1.127-2.895l.03-.074.072-.033c.958-.446 1.848-.512 2.58-.264.736.25 1.29.806 1.584 1.555l.034.089-.045.083a71.86 71.86 0 0 0-2.238 4.528c3.293-1.631 6.167-2.156 7.66-.57 4.43 4.707-5.706 11.711-7.5 12.002 0 0-.573-.17-.962-.56-.39-.392-.233-.964-.233-.964 2.059-1.032 5.558-3.571 5.558-5.714 0-2.403-3.068-1.304-6.663 1.035a88.073 88.073 0 0 0-2.715 8.748c11.037-3.99 9.685 2.985 9.408 4.414-.023.12-.04.201-.04.233 0 0 1.212-.55 4.128-1.09V13.375h5.647v10.411h12.914V13.375h5.647v27.71h-5.647V28.893H79.824v12.192h-5.648V28.672c-1.3.059-2.959.206-4.814.539-1.202 4.9-5.924 10.8-11.328 14.946.159 3.246.572 6.23 1.239 8.83l.022.086-.047.075c-.44.695-1.437.987-2.433.908-1.01-.08-2.099-.543-2.779-1.465l-.035-.048-.006-.087Zm3.988-13.175c3.995-3.123 7.523-6.923 8.337-9.58-2.16.527-4.344 1.267-6.453 2.142.129-1.053.278-2.116.45-3.186 2.219-1 4.455-1.91 6.613-2.69.513-1.81 1.098-5.135-5.53-1.566-.635.341-1.248.654-1.838.94a90.07 90.07 0 0 0-.628 3.578 81.847 81.847 0 0 0-.951 10.362Zm-.68-17.51c.473-2.3.994-4.565 1.56-6.784-5.964 4.93-10.504 10.704-2.049 7.01l.488-.226Zm-23.18 8.547h6.888l-3.43-7.957-3.458 7.957Z" fill="url(#a)"/><path d="M7.345 32.02c-.816-1.373-1.224-2.97-1.224-4.79 0-1.847.408-3.444 1.224-4.79.843-1.346 1.935-2.375 3.278-3.088 1.343-.739 2.804-1.108 4.384-1.108 1.316 0 2.487.172 3.514.515 1.027.343 1.948.805 2.764 1.385.843.58 1.567 1.214 2.172 1.9v-6.373a13.606 13.606 0 0 0-3.712-2.098c-1.316-.502-2.988-.752-5.015-.752-2.106 0-4.068.343-5.884 1.029a13.833 13.833 0 0 0-4.7 2.969c-1.316 1.293-2.343 2.824-3.08 4.592C.356 23.153 0 25.092 0 27.23s.355 4.09 1.066 5.859a13.911 13.911 0 0 0 3.08 4.552 13.833 13.833 0 0 0 4.7 2.969c1.816.686 3.778 1.03 5.884 1.03 2.027 0 3.699-.252 5.015-.753 1.343-.501 2.58-1.2 3.712-2.098v-6.373c-.605.686-1.329 1.32-2.172 1.9a10.445 10.445 0 0 1-2.764 1.385c-1.027.343-2.198.515-3.514.515-1.58 0-3.041-.356-4.384-1.069-1.343-.739-2.435-1.781-3.278-3.127Z" fill="url(#b)"/><path d="M105.835 36.295h12.124v4.79h-17.574v-27.71h17.574v4.79h-12.124v5.858h11.334v4.711h-11.334v7.561Z" fill="url(#c)"/><path fill-rule="evenodd" clip-rule="evenodd" d="M119.97 13.375v27.71h9.399c2.896 0 5.423-.567 7.582-1.702 2.185-1.135 3.883-2.732 5.095-4.79 1.211-2.085 1.816-4.54 1.816-7.363 0-2.824-.605-5.265-1.816-7.323-1.212-2.085-2.91-3.695-5.095-4.83-2.159-1.135-4.686-1.702-7.582-1.702h-9.399Zm5.766 5.146V35.94h3.436c1.211 0 2.356-.158 3.435-.475a7.919 7.919 0 0 0 2.844-1.584c.816-.712 1.448-1.61 1.895-2.691.474-1.109.711-2.428.711-3.959 0-1.53-.237-2.837-.711-3.919-.447-1.108-1.079-2.019-1.895-2.731a7.461 7.461 0 0 0-2.844-1.544 11.273 11.273 0 0 0-3.435-.515h-3.436Z" fill="url(#d)"/><defs><linearGradient id="a" x1="0" y1="0" x2="140.886" y2="60.948" gradientUnits="userSpaceOnUse"><stop offset=".04" stop-color="#BC9856"/><stop offset=".289" stop-color="#E8C374"/><stop offset=".415" stop-color="#F8D98A"/><stop offset=".511" stop-color="#E8C375"/><stop offset=".984" stop-color="#BA9655"/></linearGradient><linearGradient id="b" x1="0" y1="0" x2="140.886" y2="60.948" gradientUnits="userSpaceOnUse"><stop offset=".04" stop-color="#BC9856"/><stop offset=".289" stop-color="#E8C374"/><stop offset=".415" stop-color="#F8D98A"/><stop offset=".511" stop-color="#E8C375"/><stop offset=".984" stop-color="#BA9655"/></linearGradient><linearGradient id="c" x1="0" y1="0" x2="140.886" y2="60.948" gradientUnits="userSpaceOnUse"><stop offset=".04" stop-color="#BC9856"/><stop offset=".289" stop-color="#E8C374"/><stop offset=".415" stop-color="#F8D98A"/><stop offset=".511" stop-color="#E8C375"/><stop offset=".984" stop-color="#BA9655"/></linearGradient><linearGradient id="d" x1="0" y1="0" x2="140.886" y2="60.948" gradientUnits="userSpaceOnUse"><stop offset=".04" stop-color="#BC9856"/><stop offset=".289" stop-color="#E8C374"/><stop offset=".415" stop-color="#F8D98A"/><stop offset=".511" stop-color="#E8C375"/><stop offset=".984" stop-color="#BA9655"/></linearGradient></defs></svg>