<svg width="137" height="41" fill="none" xmlns="http://www.w3.org/2000/svg"><path d="M55.92 25.8c-1 1.28-2.58 2.06-4 2.06-2.52 0-4.1-2.16-4.1-4.96 0-2.76 1.62-4.86 4.04-4.86 1.88 0 3.18 1.06 3.8 2.62v-3.84c-.64-.34-1.84-.78-3.58-.78-4.82 0-7.26 3.58-7.26 7.24 0 3.44 2.16 6.68 6.74 6.68 1.76 0 3.42-.78 4.36-1.86v-2.3Z" fill="url(#a)"/><path d="M60.754 27.1c-.9 2.28-1.7 2.54-1.88 2.56h4.48c-.18-.02-.82-.18-.82-1.04 0-.2.06-.48.2-.88l.42-1.24h5.1c.3.84.72 1.84.72 2.22 0 .76-.58.92-.74.94h5.38c-.18-.04-1.06-.34-1.9-2.5l-4.4-10.82h-2.36l-4.2 10.76Zm3.06-2.34 1.86-4.92 1.9 4.92h-3.76Z" fill="url(#b)"/><path d="M76.635 28.96c.96.6 2.46 1 3.94 1 2.88 0 5.06-1.4 5.06-4 0-2.44-1.96-3.44-3.74-4.24-1.38-.64-2.58-1.18-2.58-2.26 0-.82.64-1.46 1.98-1.46 1.58 0 2.94 1.16 3.46 2.14v-3.18c-.72-.5-2-.9-3.28-.9-2.64 0-4.78 1.36-4.78 3.98 0 1.86 1.32 2.82 2.7 3.54 1.68.88 3.5 1.46 3.5 2.88 0 .96-1.02 1.52-2.24 1.52-1.58 0-3.04-.68-4.02-2.8v3.78Z" fill="url(#c)"/><path d="M90.236 27.6c0 1.86-.9 2.04-1.04 2.06h4.9c-.16-.02-1.02-.26-1.02-2.06v-9.1c0-1.94.94-2.14 1.04-2.16h-4.92c.14.04 1.04.28 1.04 2.16v9.1Z" fill="url(#d)"/><path d="M98.685 27.48c0 1.98-.88 2.16-1.02 2.18h4.44c-.2-.02-1.2-.26-1.2-2.18V20.7l4.46 5.44c1.64 2 2.14 3.52 2.14 3.52h2.08V18.54c0-1.98.9-2.18 1.04-2.2h-4.34c.18.04 1.1.28 1.1 2.2v5.66l-6.28-7.86h-4.24c.14.06 1.82.82 1.82 2.36v8.78Z" fill="url(#e)"/><path d="M114.978 27.6c0 1.86-.9 2.04-1.04 2.06h4.9c-.16-.02-1.02-.26-1.02-2.06v-9.1c0-1.94.94-2.14 1.04-2.16h-4.92c.14.04 1.04.28 1.04 2.16v9.1Z" fill="url(#f)"/><path d="M123.527 27.1c-.9 2.28-1.7 2.54-1.88 2.56h4.48c-.18-.02-.82-.18-.82-1.04 0-.2.06-.48.2-.88l.42-1.24h5.1c.3.84.72 1.84.72 2.22 0 .76-.58.92-.74.94h5.38c-.18-.04-1.06-.34-1.9-2.5l-4.4-10.82h-2.36l-4.2 10.76Zm3.06-2.34 1.86-4.92 1.9 4.92h-3.76Z" fill="url(#g)"/><path d="M19.98 4.99v1.425c8.54.713 15.265 7.863 15.265 16.56 0 4.868-2.1 9.247-5.441 12.282v-9.96l1.61-1.609v-4.807h-1.61v1.61h-1.61v-1.61h-1.61v1.61h-1.59v-1.61h-1.61v4.807l1.61 1.61v3.645h-1.61v-1.609H21.55v-7.475h.285l.49-.856v-2.322h-1.162v-3.768h1.834c-.428-.631-3.872-6.457-4.035-7.312.224-.123.366-.326.366-.57 0-.306-.224-.55-.55-.632V3.055c.448.02 1.529.101 2.731.305 1.59.285 2.792-1.242 2.792-1.242s-1.977.61-3.077-.428c-.836-.774-1.936-.774-2.446-.733V.753h-.489v3.666c-.326.061-.55.306-.55.632 0 .244.163.427.366.57-.163.835-3.586 6.66-4.014 7.292h1.793v3.768h-1.12v2.322l.468.856h.285v7.495h-1.773v1.61h-1.59v-3.361l1.61-1.61v-4.786h-1.61v1.61h-1.61v-1.61h-1.61v1.61h-1.61v-1.61h-1.61v4.807l1.61 1.61v9.613c-3.28-3.055-5.36-7.414-5.36-12.262 0-8.575 6.522-15.643 14.878-16.519V5.03C7.712 5.906.538 13.626.538 22.975c0 8.86 6.4 16.234 14.837 17.762v-3.769a3.196 3.196 0 0 1 3.159-3.198h.06c1.774 0 3.2 1.426 3.2 3.198v3.81c8.458-1.508 14.878-8.902 14.878-17.782 0-9.513-7.378-17.314-16.691-18.006ZM8.955 26.56a.796.796 0 0 1 1.59 0v2.404h-1.61V26.56h.02Zm17.629 0a.796.796 0 0 1 1.59 0v2.404h-1.61V26.56h.02Z" fill="url(#h)"/><defs><linearGradient id="a" x1=".538" y1="40.777" x2=".538" y2=".753" gradientUnits="userSpaceOnUse"><stop offset=".034" stop-color="#A66E26"/><stop offset=".321" stop-color="#F3C046"/><stop offset=".447" stop-color="#F3C858"/><stop offset=".805" stop-color="#F0C25B"/><stop offset="1" stop-color="#BF8335"/></linearGradient><linearGradient id="b" x1=".538" y1="40.777" x2=".538" y2=".753" gradientUnits="userSpaceOnUse"><stop offset=".034" stop-color="#A66E26"/><stop offset=".321" stop-color="#F3C046"/><stop offset=".447" stop-color="#F3C858"/><stop offset=".805" stop-color="#F0C25B"/><stop offset="1" stop-color="#BF8335"/></linearGradient><linearGradient id="c" x1=".538" y1="40.777" x2=".538" y2=".753" gradientUnits="userSpaceOnUse"><stop offset=".034" stop-color="#A66E26"/><stop offset=".321" stop-color="#F3C046"/><stop offset=".447" stop-color="#F3C858"/><stop offset=".805" stop-color="#F0C25B"/><stop offset="1" stop-color="#BF8335"/></linearGradient><linearGradient id="d" x1=".538" y1="40.777" x2=".538" y2=".753" gradientUnits="userSpaceOnUse"><stop offset=".034" stop-color="#A66E26"/><stop offset=".321" stop-color="#F3C046"/><stop offset=".447" stop-color="#F3C858"/><stop offset=".805" stop-color="#F0C25B"/><stop offset="1" stop-color="#BF8335"/></linearGradient><linearGradient id="e" x1=".538" y1="40.777" x2=".538" y2=".753" gradientUnits="userSpaceOnUse"><stop offset=".034" stop-color="#A66E26"/><stop offset=".321" stop-color="#F3C046"/><stop offset=".447" stop-color="#F3C858"/><stop offset=".805" stop-color="#F0C25B"/><stop offset="1" stop-color="#BF8335"/></linearGradient><linearGradient id="f" x1=".538" y1="40.777" x2=".538" y2=".753" gradientUnits="userSpaceOnUse"><stop offset=".034" stop-color="#A66E26"/><stop offset=".321" stop-color="#F3C046"/><stop offset=".447" stop-color="#F3C858"/><stop offset=".805" stop-color="#F0C25B"/><stop offset="1" stop-color="#BF8335"/></linearGradient><linearGradient id="g" x1=".538" y1="40.777" x2=".538" y2=".753" gradientUnits="userSpaceOnUse"><stop offset=".034" stop-color="#A66E26"/><stop offset=".321" stop-color="#F3C046"/><stop offset=".447" stop-color="#F3C858"/><stop offset=".805" stop-color="#F0C25B"/><stop offset="1" stop-color="#BF8335"/></linearGradient><linearGradient id="h" x1=".538" y1="40.777" x2=".538" y2=".753" gradientUnits="userSpaceOnUse"><stop offset=".034" stop-color="#A66E26"/><stop offset=".321" stop-color="#F3C046"/><stop offset=".447" stop-color="#F3C858"/><stop offset=".805" stop-color="#F0C25B"/><stop offset="1" stop-color="#BF8335"/></linearGradient></defs></svg>