<svg width="210" height="20" fill="none" xmlns="http://www.w3.org/2000/svg"><g clip-path="url(#a)"><path d="M40.11 0h-2.433l-1.664 10.498a5.51 5.51 0 0 0 1.267 4.43 5.51 5.51 0 0 0 4.19 1.925h6.75c2.663 0 4.946-1.9 5.43-4.52L56.04 0h-2.433l-2.27 11.535a4.026 4.026 0 0 1-3.922 3.08h-5.078a4.025 4.025 0 0 1-3.095-1.444 4.023 4.023 0 0 1-.88-3.296L40.11 0Z" fill="#DA0003"/><path d="m56.864 0-2.422 12.485c-.55 3-3.168 5.18-6.224 5.18H41.47a6.324 6.324 0 0 1-6.255-7.29L36.857 0h-2.213l-1.58 8.942a9.395 9.395 0 0 0 2.056 7.692A9.395 9.395 0 0 0 42.34 20h5.078a9.392 9.392 0 0 0 9.15-7.191L59.148 0H56.86h.003ZM64.592 0h-2.395l-3.88 19.986h2.345L64.592 0ZM65.414 0l-3.93 19.986h2.388L67.757 0h-2.343Z" fill="#DA0003"/><path d="M157.893 0h-2.391l-3.885 19.986h2.346L157.893 0ZM158.719 0l-3.93 19.986h2.384L161.058 0h-2.339Z" fill="#fff"/><path d="M78.74 3.282c-3.951 0-7.181 3.279-7.181 7.23v.344a5.927 5.927 0 0 0 5.92 5.92h13.014l.422-2.157H77.618a3.768 3.768 0 0 1-3.717-4.39l.132-.796a4.829 4.829 0 0 1 4.78-4.048h13.894l.408-2.103H78.739Z" fill="#DA0003"/><path d="M77.48 17.581a6.735 6.735 0 0 1-6.729-6.728v-.345c0-4.396 3.59-8.037 7.989-8.037h14.532l.48-2.474h-14.94a10.19 10.19 0 0 0-10.086 8.548l-.132.797a9.13 9.13 0 0 0 2.046 7.417 9.13 9.13 0 0 0 6.982 3.234l12.252-.01.467-2.405H77.483l-.003.003ZM100.684 0l-1.852 9.62h12.026L116.831 0h-2.67l-4.762 7.313-7.769-.01L103.047 0h-2.363ZM99.864 0h-2.37l-3.885 19.986h2.409L99.864 0ZM112.611 19.986h2.249l.313-2.708c.23-2.081-.369-4.204-1.559-5.537-.773-.86-1.72-1.316-2.747-1.316H98.681l-1.837 9.558h2.325l1.42-7.303h8.378c1.211 0 2.346.536 3.115 1.47a4.026 4.026 0 0 1 .849 3.337l-.316 2.496-.004.003Z" fill="#DA0003"/><path d="M114.608 9.182 120.587 0h-2.805l-6.032 9.715c.915.198 1.754.7 2.461 1.49 1.34 1.496 2.015 3.86 1.761 6.164l-.303 2.617h2.36l.199-1.566a9.4 9.4 0 0 0-3.62-9.238Z" fill="#DA0003"/><path d="M191.426 19.986h-4.211L191.099 0h4.212l-3.885 19.986ZM196.085 19.986h-3.136L196.834 0h3.136l-3.885 19.986ZM199.663 19.986h-2.058L201.486 0h2.058l-3.885 19.986h.004ZM202.693 19.986h-1.521L205.06 0h1.521l-3.885 19.986h-.003ZM205.192 19.986h-.981L208.095 0h.982l-3.885 19.986ZM126.485 0l-1.782 9.144 2.332 7.602h2.353l6.07-8.246 1.609-8.5h-2.291l-1.409 7.09-4.772 6.815-1.598-4.98L128.741 0h-2.256ZM137.891 0l-1.661 8.768 2.479 7.974h2.088l6.446-8.545 1.511-8.2h-2.381c-.118.577-1.403 7.09-1.403 7.09l-4.785 6.77-1.574-4.94s1.706-8.823 1.727-8.924h-2.444l-.003.007Z" fill="#fff"/><path d="m149.571 0-1.574 8.535-6.801 9.018h-3.084l-2.468-7.943-5.847 7.943h-3.355l-2.566-8.364L125.665 0h-2.478l-1.792 9.172 3.376 10.814h6.213l3.703-5.318 1.674 5.318h6.213a2834.51 2834.51 0 0 0 7.561-10.814L151.927 0H149.571ZM187.327 0l-3.324 17.518h-2.726l-12.569-13.8h-1.27l-2.872 16.268h2.28l2.371-12.207 10.953 12.207h5.528L189.582 0h-2.255Z" fill="#fff"/><path d="M166.761 2.91h2.304l12.572 13.8h1.699L186.507 0h-2.451l-2.45 12.457L170.732 0h-5.558l-3.885 19.986h2.461l3.011-17.076Z" fill="#fff"/><path d="M29.574 4.546C27.9 1.699 24.938 0 21.645 0h-10.1C7.444 0 3.59 2.168 1.488 5.663a9.258 9.258 0 0 0-.335.599c-1.587 2.896-1.535 6.317.14 9.168 1.674 2.847 4.636 4.546 7.925 4.546H19.32c1.291 0 2.555-.223 3.752-.627l.439.627h2.22l-6.404-9.294h-2.3l2.714 3.892c-.139.01-.278.02-.42.02H9.218c-1.382 0-2.579-.689-3.286-1.89a3.854 3.854 0 0 1-.045-3.874l.06-.114S6 8.61 6.1 8.444c1.134-1.886 3.223-3.056 5.447-3.056h10.1c1.383 0 2.58.69 3.287 1.89a3.855 3.855 0 0 1 .045 3.874l-.06.115s-.052.104-.153.272a6.162 6.162 0 0 1-.835 1.079l-1.35-1.936h-2.277l6.405 9.294h2.356l-2.026-2.903a11.529 11.529 0 0 0 2.34-2.76c.166-.275.278-.484.334-.6 1.587-2.895 1.534-6.317-.14-9.167Zm-1.886 8.106s-.09.188-.268.477a9.104 9.104 0 0 1-1.692 2.054l-.466-.669a8.438 8.438 0 0 0 1.465-1.803c.16-.264.24-.431.244-.435 1.086-1.956 1.061-4.253-.063-6.164a6.048 6.048 0 0 0-5.26-3.018h-10.1c-3.021 0-5.858 1.594-7.407 4.163-.16.265-.24.432-.244.435-1.086 1.956-1.061 4.254.063 6.165a6.048 6.048 0 0 0 5.26 3.017h10.1c.64 0 1.267-.076 1.88-.215l.498.71c-.77.201-1.567.31-2.378.31H9.22c-2.472 0-4.696-1.278-5.956-3.419a6.932 6.932 0 0 1-.084-6.947s.09-.188.268-.477C5.14 4.027 8.245 2.28 11.544 2.28h10.101c2.471 0 4.696 1.277 5.956 3.418a6.932 6.932 0 0 1 .083 6.947l.004.007Z" fill="#DA0003"/></g><defs><clipPath id="a"><path fill="#fff" d="M0 0h209.078v20H0z"/></clipPath></defs></svg>